<?xml version="1.0" encoding="UTF-8"?>
<svg id="Layer_1" xmlns="http://www.w3.org/2000/svg" version="1.1" viewBox="0 0 261.87 97.7">
  <!-- Generator: Adobe Illustrator 30.6.0, SVG Export Plug-In . SVG Version: 2.1.4 Build 109)  -->
  <defs>
    <style>
      .st0 {
        fill: #4f332f;
      }
    </style>
  </defs>
  <path class="st0" d="M0,17.08h10.93v63.88L52.94,17.08h12.31l-26.47,39.25,34.41,41.32h-13.01l-27.39-32.46-21.87,32.46H0V17.08Z"/>
  <path class="st0" d="M108.73,17.08c24.41,0,40.76,16.13,40.76,40.31s-16.35,40.31-40.76,40.31-40.76-16.13-40.76-40.31,16.24-40.31,40.76-40.31ZM108.73,88.18c18.03,0,30.12-12.21,30.12-30.79s-12.09-30.79-30.12-30.79-30.12,12.09-30.12,30.79,12.09,30.79,30.12,30.79Z"/>
  <path class="st0" d="M169.96,67.73v-.79h-1.13v30.6h-10.77v-49.07c0-19.6,13.37-31.39,35.58-31.39s35.7,12.35,35.7,32.75-13.26,32.3-34.34,32.3c-13.37,0-25.04-5.67-25.04-14.39ZM194.55,72.26c14.96,0,23.91-8.39,23.91-22.44s-8.84-22.66-24.82-22.66-24.82,7.59-24.82,22.66c0,12.58,9.29,22.44,25.72,22.44Z"/>
  <path class="st0" d="M238.63,17.08h10.79v80.46h-10.79V17.08Z"/>
  <path class="st0" d="M251.08,0h10.79l-12.45,12.4h-10.79l12.45-12.4Z"/>
</svg>